<svg width="20" height="20" viewBox="0 0 20 20" fill="none" xmlns="http://www.w3.org/2000/svg">
<path d="M18.9805 16.9925L15.2462 13.2584C15.0776 13.0899 14.8492 12.9962 14.6094 12.9962H13.9989C15.0327 11.6742 15.647 10.0113 15.647 8.20228C15.647 3.89894 12.1599 0.412079 7.8562 0.412079C3.55255 0.412079 0.0654297 3.89894 0.0654297 8.20228C0.0654297 12.5056 3.55255 15.9925 7.8562 15.9925C9.66531 15.9925 11.3283 15.3783 12.6505 14.3446V14.955C12.6505 15.1947 12.7442 15.4232 12.9127 15.5917L16.647 19.3258C16.9991 19.6778 17.5684 19.6778 17.9168 19.3258L18.9768 18.2659C19.3289 17.9138 19.3289 17.3445 18.9805 16.9925ZM7.8562 12.9962C5.20809 12.9962 3.06188 10.8539 3.06188 8.20228C3.06188 5.55436 5.20434 3.40831 7.8562 3.40831C10.5043 3.40831 12.6505 5.55061 12.6505 8.20228C12.6505 10.8502 10.5081 12.9962 7.8562 12.9962Z" fill="#303493"/>
</svg>
